#!OML:ASF H:\Terrain\Patient Classification 1\Animal1\Tuesday\Animal1.ASF
:FULLY-SPECIFIED
:DEGREES
2473
root 12.0263 15.2247 -13.3351 37.2501 -33.6118 -13.865
lowerback 17.7067 -2.4165 6.70311
upperback -6.41073 -0.66689 6.49064
thorax -17.6118 -0.540974 4.04183
lowerneck -4.4264 -10.6698 -8.62847
upperneck -8.71768 -13.4707 19.4672
head 0.213886 -6.92661 6.87729
rclavicle 7.17178e-015 7.7203e-014
rhumerus -58.4387 22.8828 -101.09
rradius 68.7741
rwrist -9.41985
rhand -25.3655 38.1228
rfingers 7.12502
rthumb 1.15855 8.14622
lclavicle 7.17178e-015 7.7203e-014
lhumerus -49.5444 -11.6027 99.06
lradius 46.7742
lwrist -39.1819
lhand -10.2383 44.5269
lfingers 7.12502
lthumb 15.7542 73.9057
rfemur -59.1884 17.6768 29.7342
rtibia 44.2647
rfoot -13.2517 -5.85582
rtoes -6.70149
lfemur -51.8179 17.1288 -3.45157
ltibia 58.673
lfoot -29.9279 20.286
ltoes -3.54681
2474
root 12.0441 15.2197 -13.3551 37.634 -33.6184 -13.7343
lowerback 17.6595 -2.37369 6.5196
upperback -6.36072 -0.660612 6.51294
thorax -17.5124 -0.516364 4.16027
lowerneck -4.3337 -10.652 -8.80319
upperneck -8.30149 -13.4926 19.6458
head 0.35015 -6.92214 6.94604
rclavicle -3.80176e-015 -4.31363e-014
rhumerus -58.2576 22.7695 -100.834
rradius 69.0889
rwrist -8.79041
rhand -25.1782 38.1178
rfingers 7.12502
rthumb 1.33951 8.14221
lclavicle -3.80176e-015 -4.31363e-014
lhumerus -49.4563 -11.916 99.2325
lradius 46.9771
lwrist -39.4987
lhand -10.4841 44.5946
lfingers 7.12502
lthumb 15.5175 73.992
rfemur -59.8126 17.6151 29.4739
rtibia 44.1794
rfoot -13.1279 -5.74267
rtoes -7.10411
lfemur -52.5444 17.1713 -3.72082
ltibia 58.7445
lfoot -29.6828 20.4507
ltoes -4.00381
2475
root 12.0656 15.2187 -13.3741 37.794 -33.6486 -13.581
lowerback 17.8343 -2.37373 6.40388
upperback -6.19738 -0.688017 6.46295
thorax -17.4132 -0.518157 4.16919
lowerneck -4.44147 -10.6794 -8.79565
upperneck -7.72478 -13.5952 19.6839
head 0.550923 -6.94443 6.92114
rclavicle -1.2424e-017 -1.25533e-013
rhumerus -57.8717 22.5751 -100.661
rradius 69.2897
rwrist -8.11351
rhand -25.7729 38.2236
rfingers 7.12502
rthumb 0.765066 8.24522
lclavicle -1.2424e-017 -1.25533e-013
lhumerus -49.1443 -12.2859 99.2947
lradius 47.0827
lwrist -39.7161
lhand -11.0963 44.5302
lfingers 7.12502
lthumb 14.9277 73.9722
rfemur -60.1815 17.3942 29.3509
rtibia 44.1052
rfoot -12.9075 -5.47218
rtoes -6.87929
lfemur -53.0106 17.1585 -3.96974
ltibia 58.8218
lfoot -29.5511 20.4516
ltoes -3.71093
2476
root 12.085 15.2148 -13.3961 38.0127 -33.5526 -13.7041
lowerback 18.0864 -2.43582 6.53686
upperback -5.98365 -0.725841 6.46711
thorax -17.3078 -0.547646 4.10709
lowerneck -4.69377 -10.6738 -8.69638
upperneck -6.80927 -13.6917 19.5618
head 0.851163 -6.94103 6.81536
rclavicle 2.62396e-014 -1.80397e-014
rhumerus -57.5785 22.5681 -100.636
rradius 69.5325
rwrist -7.7625
rhand -26.4826 38.1804
rfingers 7.12502
rthumb 0.0796192 8.20063
lclavicle 2.62396e-014 -1.80397e-014
lhumerus -48.8855 -12.6515 99.2766
lradius 47.1533
lwrist -39.7408
lhand -12.1914 44.517
lfingers 7.12502
lthumb 13.8726 74.0343
rfemur -60.4021 17.2418 29.5427
rtibia 44.0501
rfoot -12.7423 -5.29123
rtoes -7.08237
lfemur -53.3905 17.2342 -3.87022
ltibia 58.9181
lfoot -29.42 20.3098
ltoes -3.25596
2477
root 12.1023 15.2098 -13.4168 38.3309 -33.7414 -13.8165
lowerback 18.213 -2.39332 6.42625
upperback -5.84337 -0.691785 6.47223
thorax -17.2088 -0.519467 4.158
lowerneck -4.81464 -10.5894 -8.93534
upperneck -5.61588 -13.7102 19.5999
head 1.23809 -6.8853 6.81739
rclavicle -6.83322e-015 6.16232e-014
rhumerus -57.5164 22.7195 -100.578
rradius 69.8123
rwrist -7.74101
rhand -26.8298 37.9782
rfingers 7.12502
rthumb -0.255746 7.99865
lclavicle -6.83322e-015 6.16232e-014
lhumerus -48.8402 -12.7499 99.2639
lradius 47.3931
lwrist -39.8272
lhand -12.815 44.7444
lfingers 7.12502
lthumb 13.2715 74.3018
rfemur -60.7486 17.3389 29.4888
rtibia 43.9849
rfoot -12.7158 -5.13412
rtoes -7.41766
lfemur -53.7747 17.4795 -3.95182
ltibia 59.0114
lfoot -29.1979 20.4351
ltoes -4.17909
2478
root 12.1187 15.2111 -13.438 38.5708 -34.0737 -13.7344
lowerback 18.3531 -2.31915 6.0724
upperback -5.74271 -0.683586 6.38619
thorax -17.1603 -0.482872 4.25085
lowerneck -4.91181 -10.5287 -8.92899
upperneck -4.40471 -13.7756 19.5049
head 1.60344 -6.85742 6.74128
rclavicle 1.16289e-014 4.73108e-014
rhumerus -57.4283 22.7211 -100.578
rradius 70.0327
rwrist -7.63634
rhand -26.9511 38.2977
rfingers 7.12502
rthumb -0.372899 8.31825
lclavicle 1.16289e-014 4.73108e-014
lhumerus -48.7476 -12.8325 99.1243
lradius 47.669
lwrist -39.9011
lhand -13.107 45.0121
lfingers 7.12502
lthumb 12.99 74.5877
rfemur -61.1177 17.3362 29.2816
rtibia 43.8976
rfoot -12.7135 -4.83403
rtoes -7.56048
lfemur -54.1423 17.7917 -4.35592
ltibia 59.1011
lfoot -28.9856 20.5281
ltoes -5.25343
2479
root 12.136 15.2118 -13.4591 38.7933 -34.26 -13.594
lowerback 18.4935 -2.26654 5.77243
upperback -5.66266 -0.687977 6.31439
thorax -17.1398 -0.456652 4.33715
lowerneck -4.87837 -10.5197 -8.76716
upperneck -3.38364 -13.8963 19.2615
head 1.87622 -6.87376 6.60597
rclavicle 6.82825e-014 -6.67916e-014
rhumerus -57.3452 22.63 -100.534
rradius 70.316
rwrist -7.40732
rhand -26.8885 38.2159
rfingers 7.12502
rthumb -0.312392 8.23641
lclavicle 6.82825e-014 -6.67916e-014
lhumerus -48.5649 -13.081 99.0216
lradius 47.7925
lwrist -40.0791
lhand -13.0326 44.903
lfingers 7.12502
lthumb 13.0618 74.474
rfemur -61.5008 17.0591 29.2472
rtibia 43.8387
rfoot -12.6881 -4.43703
rtoes -7.99409
lfemur -54.575 17.976 -4.72995
ltibia 59.1867
lfoot -28.8387 20.5433
ltoes -6.00549
2480
root 12.1527 15.2133 -13.4759 38.9007 -34.3282 -13.6502
lowerback 18.8596 -2.21377 5.68941
upperback -5.51627 -0.606496 6.32948
thorax -17.1881 -0.407594 4.38488
lowerneck -4.8083 -10.4788 -9.07497
upperneck -2.287 -13.9761 19.3546
head 2.22324 -6.86293 6.65109
rclavicle -1.09829e-014 1.56046e-014
rhumerus -57.3125 22.4725 -100.307
rradius 70.6431
rwrist -7.15395
rhand -26.8403 37.9658
rfingers 7.12502
rthumb -0.265842 7.98624
lclavicle -1.09829e-014 1.56046e-014
lhumerus -48.4213 -13.2698 99.0419
lradius 47.9235
lwrist -40.4752
lhand -12.9586 44.5444
lfingers 7.12502
lthumb 13.1331 74.1108
rfemur -61.6039 16.8139 29.4533
rtibia 43.7934
rfoot -12.7491 -4.02855
rtoes -7.59515
lfemur -54.7313 18.0685 -4.76476
ltibia 59.2359
lfoot -28.8053 20.5834
ltoes -7.08744
2481
root 12.172 15.2096 -13.4934 39.1735 -34.4354 -13.6766
lowerback 18.9654 -2.15954 5.60164
upperback -5.39165 -0.554794 6.32158
thorax -17.0977 -0.375862 4.40221
lowerneck -4.91087 -10.3842 -9.31161
upperneck -1.09337 -13.995 19.4233
head 2.612 -6.81112 6.67525
rclavicle 8.29926e-015 2.98177e-014
rhumerus -57.2487 22.2635 -100.047
rradius 70.9474
rwrist -7.04195
rhand -26.6257 38.6835
rfingers 7.12502
rthumb -0.0586214 8.70372
lclavicle 8.29926e-015 2.98177e-014
lhumerus -48.3752 -13.1046 98.97
lradius 48.1968
lwrist -41.1156
lhand -13.1793 44.4295
lfingers 7.12502
lthumb 12.9204 74.0095
rfemur -61.9543 16.6348 29.5067
rtibia 43.7692
rfoot -12.8343 -3.39493
rtoes -5.76449
lfemur -55.141 18.2226 -4.9287
ltibia 59.3016
lfoot -28.7239 20.5984
ltoes -7.43692
2482
root 12.1918 15.2081 -13.5103 39.2851 -34.5893 -13.5863
lowerback 19.2162 -2.14121 5.4028
upperback -5.24933 -0.570274 6.28645
thorax -17.0719 -0.362781 4.48057
lowerneck -4.97834 -10.2889 -9.32869
upperneck -0.0949077 -13.9913 19.309
head 2.90405 -6.76204 6.62018
rclavicle -3.3694e-014 -5.08889e-014
rhumerus -57.2137 22.0791 -99.8706
rradius 71.3682
rwrist -7.0354
rhand -26.3851 39.3043
rfingers 7.12502
rthumb 0.173822 9.32466
lclavicle -3.3694e-014 -5.08889e-014
lhumerus -48.4132 -12.4765 98.851
lradius 48.5164
lwrist -41.8765
lhand -13.1988 44.4822
lfingers 7.12502
lthumb 12.9015 74.0634
rfemur -62.197 16.4054 29.4931
rtibia 43.7281
rfoot -12.9356 -2.80228
rtoes -4.40251
lfemur -55.4211 18.3726 -5.2182
ltibia 59.3292
lfoot -28.4452 20.6586
ltoes -7.53507
2483
root 12.2095 15.2059 -13.5254 39.4843 -34.7113 -13.6612
lowerback 19.4935 -2.11176 5.33887
upperback -5.07332 -0.533825 6.27108
thorax -17.0254 -0.339984 4.4872
lowerneck -4.97072 -10.2044 -9.37016
upperneck 0.631648 -13.9766 19.3167
head 3.11571 -6.72282 6.61823
rclavicle -3.98563e-014 1.63003e-014
rhumerus -57.1915 21.8544 -99.7891
rradius 71.9107
rwrist -6.90397
rhand -26.6076 39.3853
rfingers 7.12502
rthumb -0.0410942 9.40559
lclavicle -3.98563e-014 1.63003e-014
lhumerus -47.9843 -12.9625 98.7638
lradius 48.6023
lwrist -41.2771
lhand -13.4866 44.8614
lfingers 7.12502
lthumb 12.6241 74.4599
rfemur -62.4086 16.3362 29.5477
rtibia 43.6532
rfoot -12.9291 -2.3729
rtoes -3.24366
lfemur -55.6367 18.5598 -5.32391
ltibia 59.3548
lfoot -28.2975 20.5834
ltoes -7.53785
